<?xml version="1.0" encoding="UTF-8" standalone="no"?>
<svg
   xmlns:dc="http://purl.org/dc/elements/1.1/"
   xmlns:cc="http://creativecommons.org/ns#"
   xmlns:rdf="http://www.w3.org/1999/02/22-rdf-syntax-ns#"
   xmlns:svg="http://www.w3.org/2000/svg"
   xmlns="http://www.w3.org/2000/svg"
   viewBox="0 0 572 406.66666"
   height="406.66666"
   width="572"
   xml:space="preserve"
   id="svg2"
   version="1.1"><metadata
     id="metadata8"><rdf:RDF><cc:Work
         rdf:about=""><dc:format>image/svg+xml</dc:format><dc:type
           rdf:resource="http://purl.org/dc/dcmitype/StillImage" /></cc:Work></rdf:RDF></metadata><defs
     id="defs6"><clipPath
       id="clipPath20"
       clipPathUnits="userSpaceOnUse"><path
         id="path18"
         d="M 0,0 H 4290 V 3045 H 0 Z" /></clipPath><clipPath
       id="clipPath32"
       clipPathUnits="userSpaceOnUse"><path
         id="path30"
         d="m 435.898,325.602 h 3799.3 v 2664.6 h -3799.3 z" /></clipPath><clipPath
       id="clipPath46"
       clipPathUnits="userSpaceOnUse"><path
         id="path44"
         d="M 0,0 H 4290 V 3045 H 0 Z" /></clipPath></defs><g
     transform="matrix(1.3333333,0,0,-1.3333333,0,406.66667)"
     id="g10"><g
       transform="scale(0.1)"
       id="g12"><g
         id="g14"><g
           clip-path="url(#clipPath20)"
           id="g16"><path
             id="path22"
             style="fill:#ffffff;fill-opacity:1;fill-rule:nonzero;stroke:none"
             d="M 0,0 H 4290 V 3045 H 0 Z" /><path
             id="path24"
             style="fill:none;stroke:#ffffff;stroke-width:10.69999981;stroke-linecap:round;stroke-linejoin:round;stroke-miterlimit:10;stroke-dasharray:none;stroke-opacity:1"
             d="M 0,0 H 4290 V 3045 H 0 Z" /></g></g><g
         id="g26"><g
           clip-path="url(#clipPath32)"
           id="g28"><path
             id="path34"
             style="fill:#ffffff;fill-opacity:1;fill-rule:nonzero;stroke:none"
             d="m 435.898,325.602 h 3799.3 v 2664.6 h -3799.3 z" /><path
             id="path36"
             style="fill:none;stroke:#000000;stroke-width:10.69999981;stroke-linecap:butt;stroke-linejoin:round;stroke-miterlimit:10;stroke-dasharray:none;stroke-opacity:1"
             d="m 628,446.699 38.801,0.5 38.801,-0.5 h 155.199 l 38.898,0.5 38.801,-0.5 38.801,0.5 38.799,-0.5 h 38.8 38.8 38.8 38.8 38.8 l 38.8,0.5 h 38.8 l 38.8,-0.5 38.9,2 38.8,-1.5 38.8,7.602 38.8,-6.602 38.8,20.102 38.8,-21.102 38.8,7.102 38.8,4.5 38.8,117 38.8,-112 38.8,162.199 38.8,-97.898 38.8,389 38.9,276.698 38.8,1675.3 38.8,-2349.1 38.8,-36.602 38.8,-35.199 38.8,16.602 38.8,-18.102 38.8,20.602 38.8,-20.602 38.8,2.5 38.8,-2 38.8,1.5 38.9,-0.5 38.8,-1.5 h 38.8 38.8 38.8 38.8 l 38.8,0.5 h 38.8 38.8 l 38.8,-0.5 h 38.8 38.8 38.8 38.9 l 38.8,0.5 38.8,0.5 38.8,-1 38.8,0.5 38.8,-0.5 h 38.8 38.8 l 38.8,0.5 38.8,-0.5 h 38.8 38.8 38.9 38.8 38.8 38.8 38.8 38.8 38.8 l 38.8,0.5 38.8,-0.5 h 38.8 38.8 38.8 38.8 38.9 38.8 38.8 38.8 38.8 l 38.8,0.5 38.8,-0.5" /><path
             id="path38"
             style="fill:none;stroke:#333333;stroke-width:10.69999981;stroke-linecap:round;stroke-linejoin:round;stroke-miterlimit:10;stroke-dasharray:none;stroke-opacity:1"
             d="m 435.898,325.602 h 3799.3 v 2664.6 h -3799.3 z" /></g></g><g
         id="g40"><g
           clip-path="url(#clipPath46)"
           id="g42"><g
             transform="scale(10)"
             id="g48"><text
               id="text62"
               style="font-variant:normal;font-weight:normal;font-size:9px;font-family:Helvetica;-inkscape-font-specification:Helvetica;writing-mode:lr-tb;fill:#4d4d4d;fill-opacity:1;fill-rule:nonzero;stroke:none"
               transform="matrix(1,0,0,-1,33.6563,41.4398)"><tspan
                 id="tspan50"
                 y="0"
                 x="0">0</tspan><tspan
                 id="tspan52"
                 y="-50.210201"
                 x="-15.0117 -10.0077 -5.0036998 0.00030000001">1000</tspan><tspan
                 id="tspan54"
                 y="-100.4102"
                 x="-15.0117 -10.0077 -5.0036998 0.00030000001">2000</tspan><tspan
                 id="tspan56"
                 y="-150.62041"
                 x="-15.0117 -10.0077 -5.0036998 0.00030000001">3000</tspan><tspan
                 id="tspan58"
                 y="-200.8204"
                 x="-15.0117 -10.0077 -5.0036998 0.00030000001">4000</tspan><tspan
                 id="tspan60"
                 y="-251.0204"
                 x="-15.0117 -10.0077 -5.0036998 0.00030000001">5000</tspan></text>
</g><path
             id="path64"
             style="fill:none;stroke:#333333;stroke-width:10.69999981;stroke-linecap:butt;stroke-linejoin:round;stroke-miterlimit:10;stroke-dasharray:none;stroke-opacity:1"
             d="m 408.5,446.699 h 27.398" /><path
             id="path66"
             style="fill:none;stroke:#333333;stroke-width:10.69999981;stroke-linecap:butt;stroke-linejoin:round;stroke-miterlimit:10;stroke-dasharray:none;stroke-opacity:1"
             d="m 408.5,948.801 h 27.398" /><path
             id="path68"
             style="fill:none;stroke:#333333;stroke-width:10.69999981;stroke-linecap:butt;stroke-linejoin:round;stroke-miterlimit:10;stroke-dasharray:none;stroke-opacity:1"
             d="m 408.5,1450.8 h 27.398" /><path
             id="path70"
             style="fill:none;stroke:#333333;stroke-width:10.69999981;stroke-linecap:butt;stroke-linejoin:round;stroke-miterlimit:10;stroke-dasharray:none;stroke-opacity:1"
             d="m 408.5,1952.9 h 27.398" /><path
             id="path72"
             style="fill:none;stroke:#333333;stroke-width:10.69999981;stroke-linecap:butt;stroke-linejoin:round;stroke-miterlimit:10;stroke-dasharray:none;stroke-opacity:1"
             d="m 408.5,2454.9 h 27.398" /><path
             id="path74"
             style="fill:none;stroke:#333333;stroke-width:10.69999981;stroke-linecap:butt;stroke-linejoin:round;stroke-miterlimit:10;stroke-dasharray:none;stroke-opacity:1"
             d="m 408.5,2956.9 h 27.398" /><path
             id="path76"
             style="fill:none;stroke:#333333;stroke-width:10.69999981;stroke-linecap:butt;stroke-linejoin:round;stroke-miterlimit:10;stroke-dasharray:none;stroke-opacity:1"
             d="m 1132.5,298.199 v 27.403" /><path
             id="path78"
             style="fill:none;stroke:#333333;stroke-width:10.69999981;stroke-linecap:butt;stroke-linejoin:round;stroke-miterlimit:10;stroke-dasharray:none;stroke-opacity:1"
             d="m 1908.7,298.199 v 27.403" /><path
             id="path80"
             style="fill:none;stroke:#333333;stroke-width:10.69999981;stroke-linecap:butt;stroke-linejoin:round;stroke-miterlimit:10;stroke-dasharray:none;stroke-opacity:1"
             d="m 2684.8,298.199 v 27.403" /><path
             id="path82"
             style="fill:none;stroke:#333333;stroke-width:10.69999981;stroke-linecap:butt;stroke-linejoin:round;stroke-miterlimit:10;stroke-dasharray:none;stroke-opacity:1"
             d="m 3461,298.199 v 27.403" /><g
             transform="scale(10)"
             id="g84"><text
               id="text88"
               style="font-variant:normal;font-weight:normal;font-size:9px;font-family:Helvetica;-inkscape-font-specification:Helvetica;writing-mode:lr-tb;fill:#4d4d4d;fill-opacity:1;fill-rule:nonzero;stroke:none"
               transform="matrix(1,0,0,-1,108.12,21.1699)"><tspan
                 id="tspan86"
                 y="0"
                 x="0 5.256 80.247688 157.85783 235.4778">−1012</tspan></text>
</g><g
             transform="scale(10)"
             id="g90"><text
               id="text94"
               style="font-variant:normal;font-weight:normal;font-size:11px;font-family:Helvetica;-inkscape-font-specification:Helvetica;writing-mode:lr-tb;fill:#000000;fill-opacity:1;fill-rule:nonzero;stroke:none"
               transform="matrix(1,0,0,-1,181.896,8)"><tspan
                 id="tspan92"
                 y="0"
                 x="0 2.4419999 8.5579996 14.674 20.790001 26.906 30.569 36.685001 39.126999 44.626999 50.743 53.800999 59.917 62.974998 66.032997 72.149002 78.264999 84.380997 90.497002 93.555 99.670998">log10(hisat2/tophat2)</tspan></text>
<text
               id="text98"
               style="font-variant:normal;font-weight:normal;font-size:11px;font-family:Helvetica;-inkscape-font-specification:Helvetica;writing-mode:lr-tb;fill:#000000;fill-opacity:1;fill-rule:nonzero;stroke:none"
               transform="matrix(0,1,1,0,13.3801,152.338)"><tspan
                 id="tspan96"
                 y="0"
                 x="0 5.5 11.616 17.732 23.848">count</tspan></text>
</g></g></g></g></g></svg>